# xmcd
#
# Track frame offsets: 
#        187
#        5732
#        27847
#        43347
#        63807
#        81667
#        100890
#        122717
#        139312
#
# Disc length: 2113 seconds
#
# Revision: 3
# Processed by: cddbd v1.5.2PL0 Copyright (c) Steve Scherf et al.
# Submitted via: ExactAudioCopy v1.0b6
#
DISCID=7d083f09
DTITLE=浜田麻里 - RAINBOW DREAM 
DYEAR=1984
DGENRE=Hard Rock
TTITLE0=RAINBOW DREAM
TTITLE1=CAN’T YOU SEE MY LIFE
TTITLE2=THE MOMENT OF TRUTH
TTITLE3=LOVE, LOVE, LOVE
TTITLE4=LAST SCENE
TTITLE5=LOVE MAGIC
TTITLE6=FREE WAY
TTITLE7=LONELY WOMAN
TTITLE8=HEARTY MY SONG
EXTD=
EXTT0=
EXTT1=
EXTT2=
EXTT3=
EXTT4=
EXTT5=
EXTT6=
EXTT7=
EXTT8=
PLAYORDER=
